<?xml version="1.0" encoding="UTF-8" standalone="no"?>
<!DOCTYPE svg PUBLIC "-//W3C//DTD SVG 1.1//EN" "http://www.w3.org/Graphics/SVG/1.1/DTD/svg11.dtd">
<svg width="100%" height="100%" viewBox="0 0 200 200" version="1.1" xmlns="http://www.w3.org/2000/svg" xmlns:xlink="http://www.w3.org/1999/xlink" xml:space="preserve" xmlns:serif="http://www.serif.com/" style="fill-rule:evenodd;clip-rule:evenodd;stroke-linejoin:round;stroke-miterlimit:2;">
    <g id="Layer1">
    </g>
    <g transform="matrix(0.982133,0,0,0.971656,-1.81633,-7.23831)">
        <path d="M105.182,10.997C143.916,11.181 181.787,36.14 196.553,73.224C209.631,106.067 203.441,145.749 180.396,173.166C154.54,203.927 109.346,216.605 70.685,202.303C32.286,188.098 4.531,148.283 6.292,105.568C7.776,69.585 30.557,35.347 63.472,20.091C76.51,14.048 91.031,10.975 105.182,10.997ZM104.57,19.23C64.257,19.422 25.287,49.086 16.364,90.654C9.476,122.743 21.553,158.109 47.081,179.308C71.467,199.56 106.555,205.657 136.501,194.474C171.532,181.393 196.91,145.061 195.296,105.911C193.939,73.003 173.218,41.758 143.108,27.691C131.08,22.071 117.756,19.209 104.57,19.23Z" style="stroke:black;stroke-width:1.02px;"/>
    </g>
    <g transform="matrix(0.99084,0,0,0.986098,0.182714,0.52688)">
        <path d="M91.305,33.844C120.885,33.962 150.061,45.694 172.687,65.478C181.861,73.5 190.01,82.566 197.394,92.412C198.439,93.805 199.276,97.002 197.037,98.691C194.49,100.612 191.284,97.724 189.638,95.571C170.917,71.261 145.516,51.421 116.024,44.721C86.011,37.903 53.638,43.923 26.269,58.796C24.883,59.55 23.507,60.327 22.171,61.166C22.171,61.166 20.102,62.155 18.562,61.59C15.753,60.559 14.895,56.155 18.105,54.152C29.044,47.326 41.323,42.554 53.852,39.074C66.045,35.687 78.644,33.838 91.305,33.844Z" style="stroke:black;stroke-width:1.01px;"/>
    </g>
    <path d="M11.842,76.053C14.187,76.67 14.389,76.96 14.999,79.181C15.054,79.38 17.298,84.112 20.637,87.505C32.592,99.656 50,105.488 66.753,109.992C106.014,120.547 147.587,122.212 188.283,122.182L189.273,122.18C191.584,122.327 192.069,123.015 192.74,124.174C194.118,126.55 192.34,129.974 189.287,130.18C145.231,130.26 100.685,128.671 58.457,115.948C40.996,110.687 22.937,103.847 11.759,89.511C9.719,86.894 7.871,83.993 7.174,80.845C7.174,80.845 7.009,79.96 7.153,79.218C7.547,77.191 9.504,75.756 11.842,76.053Z" style="stroke:black;stroke-width:1px;"/>
</svg>
