<?xml version="1.0" encoding="UTF-8" standalone="no"?><!DOCTYPE svg PUBLIC "-//W3C//DTD SVG 1.1//EN" "http://www.w3.org/Graphics/SVG/1.1/DTD/svg11.dtd"><svg width="100%" height="100%" viewBox="0 0 200 200" version="1.1" xmlns="http://www.w3.org/2000/svg" xmlns:xlink="http://www.w3.org/1999/xlink" xml:space="preserve" xmlns:serif="http://www.serif.com/" style="fill-rule:evenodd;clip-rule:evenodd;stroke-linejoin:round;stroke-miterlimit:2;"><g id="Layer1"></g><path d="M101.486,3.447c38.042,0.179 75.237,24.43 89.739,60.464c12.844,31.911 6.765,70.469 -15.869,97.108c-25.394,29.889 -69.78,42.208 -107.75,28.311c-37.713,-13.802 -64.973,-52.488 -63.243,-93.992c1.458,-34.964 23.831,-68.231 56.159,-83.055c12.805,-5.872 27.066,-8.858 40.964,-8.836Zm-0.601,8c-39.592,0.186 -77.866,29.009 -86.629,69.399c-6.766,31.179 5.095,65.543 30.167,86.142c23.951,19.678 58.411,25.602 87.823,14.736c34.405,-12.711 59.33,-48.013 57.744,-86.053c-1.333,-31.975 -21.684,-62.335 -51.255,-76.004c-11.813,-5.46 -24.899,-8.24 -37.85,-8.22Z" style="stroke:#000;stroke-width:1px;"/><path d="M90.652,33.901c29.308,0.116 58.217,11.684 80.636,31.193c9.09,7.911 17.165,16.851 24.48,26.56c1.036,1.374 1.865,4.526 -0.353,6.192c-2.524,1.894 -5.7,-0.954 -7.331,-3.077c-18.55,-23.972 -43.718,-43.536 -72.94,-50.142c-29.738,-6.724 -61.814,-0.787 -88.933,13.879c-1.374,0.743 -2.736,1.509 -4.061,2.336c0,0 -2.05,0.976 -3.576,0.419c-2.783,-1.017 -3.633,-5.359 -0.452,-7.335c10.839,-6.731 23.005,-11.437 35.419,-14.869c12.081,-3.339 24.565,-5.163 37.111,-5.156Z" style="stroke:#000;stroke-width:1px;"/><path d="M11.842,76.053c2.345,0.617 2.547,0.907 3.157,3.128c0.055,0.199 2.299,4.931 5.638,8.324c11.955,12.151 29.363,17.983 46.116,22.487c39.261,10.555 80.834,12.22 121.53,12.19l0.99,-0.002c2.311,0.147 2.796,0.835 3.467,1.994c1.378,2.376 -0.4,5.8 -3.453,6.006c-44.056,0.08 -88.602,-1.509 -130.83,-14.232c-17.461,-5.261 -35.52,-12.101 -46.698,-26.437c-2.04,-2.617 -3.888,-5.518 -4.585,-8.666c0,0 -0.165,-0.885 -0.021,-1.627c0.394,-2.027 2.351,-3.462 4.689,-3.165Z" style="stroke:#000;stroke-width:1px;"/></svg>